<svg width="24" height="29" viewBox="0 0 24 29" fill="none" xmlns="http://www.w3.org/2000/svg">
<path d="M12 24.1177C10.6167 24.1177 9.31667 23.8552 8.1 23.3302C6.88333 22.8052 5.825 22.0927 4.925 21.1927C4.025 20.2927 3.3125 19.2343 2.7875 18.0177C2.2625 16.801 2 15.501 2 14.1177C2 12.7343 2.2625 11.4343 2.7875 10.2177C3.3125 9.00101 4.025 7.94268 4.925 7.04268C5.825 6.14268 6.88333 5.43018 8.1 4.90518C9.31667 4.38018 10.6167 4.11768 12 4.11768C13.3833 4.11768 14.6833 4.38018 15.9 4.90518C17.1167 5.43018 18.175 6.14268 19.075 7.04268C19.975 7.94268 20.6875 9.00101 21.2125 10.2177C21.7375 11.4343 22 12.7343 22 14.1177C22 15.501 21.7375 16.801 21.2125 18.0177C20.6875 19.2343 19.975 20.2927 19.075 21.1927C18.175 22.0927 17.1167 22.8052 15.9 23.3302C14.6833 23.8552 13.3833 24.1177 12 24.1177ZM12 22.1177C14.2333 22.1177 16.125 21.3427 17.675 19.7927C19.225 18.2427 20 16.351 20 14.1177C20 11.8843 19.225 9.99268 17.675 8.44268C16.125 6.89268 14.2333 6.11768 12 6.11768C9.76667 6.11768 7.875 6.89268 6.325 8.44268C4.775 9.99268 4 11.8843 4 14.1177C4 16.351 4.775 18.2427 6.325 19.7927C7.875 21.3427 9.76667 22.1177 12 22.1177Z" fill="#BDBDBD"/>
</svg>
