<svg width="20" height="20" viewBox="0 0 20 20" fill="none" xmlns="http://www.w3.org/2000/svg">
<path d="M13.7497 2.7085C14.9307 2.7085 15.892 3.09887 16.6676 3.87451C17.4431 4.65006 17.8336 5.61068 17.8337 6.7915C17.8337 7.37294 17.7355 7.94203 17.5387 8.50049C17.3453 9.04957 16.9961 9.67563 16.4733 10.3794C15.9509 11.0826 15.2395 11.8866 14.3337 12.7925C13.4254 13.7007 12.2731 14.7845 10.8747 16.0444L9.99968 16.8276L9.12566 16.0444C7.72709 14.7843 6.57398 13.7008 5.6657 12.7925C4.75975 11.8865 4.04842 11.0826 3.52605 10.3794C3.00325 9.67563 2.65502 9.04957 2.46159 8.50049C2.26486 7.942 2.16667 7.37298 2.16667 6.7915C2.16674 5.61059 2.55711 4.65009 3.33269 3.87451C4.10826 3.09894 5.06877 2.70857 6.24968 2.7085C6.89871 2.7085 7.51405 2.84527 8.10027 3.11963C8.68734 3.39443 9.19247 3.78113 9.61882 4.28271L9.99968 4.73096L10.3805 4.28271C10.8068 3.78121 11.3121 3.39442 11.8991 3.11963C12.4853 2.84524 13.1007 2.70854 13.7497 2.7085Z" stroke="#FF9B00"/>
</svg>
