<svg width="16" height="16" viewBox="0 0 16 16" fill="none" xmlns="http://www.w3.org/2000/svg">
<path d="M2.66666 12.6666V11.3333H3.99999V6.66658C3.99999 5.74436 4.27777 4.92492 4.83332 4.20825C5.38888 3.49159 6.1111 3.02214 6.99999 2.79992V2.33325C6.99999 2.05547 7.09721 1.81936 7.29166 1.62492C7.4861 1.43047 7.72221 1.33325 7.99999 1.33325C8.27777 1.33325 8.51388 1.43047 8.70832 1.62492C8.90277 1.81936 8.99999 2.05547 8.99999 2.33325V2.79992C9.88888 3.02214 10.6111 3.49159 11.1667 4.20825C11.7222 4.92492 12 5.74436 12 6.66658V11.3333H13.3333V12.6666H2.66666ZM7.99999 14.6666C7.63332 14.6666 7.31943 14.536 7.05832 14.2749C6.79721 14.0138 6.66666 13.6999 6.66666 13.3333H9.33332C9.33332 13.6999 9.20277 14.0138 8.94166 14.2749C8.68055 14.536 8.36666 14.6666 7.99999 14.6666ZM5.33332 11.3333H10.6667V6.66658C10.6667 5.93325 10.4055 5.30547 9.88332 4.78325C9.3611 4.26103 8.73332 3.99992 7.99999 3.99992C7.26666 3.99992 6.63888 4.26103 6.11666 4.78325C5.59443 5.30547 5.33332 5.93325 5.33332 6.66658V11.3333Z" fill="#363636"/>
</svg>
