<svg width="20" height="20" viewBox="0 0 20 20" fill="none" xmlns="http://www.w3.org/2000/svg">
<path d="M10 17.5002L8.79169 16.4168C7.38891 15.1529 6.22919 14.0627 5.31252 13.146C4.39585 12.2293 3.66669 11.4064 3.12502 10.6772C2.58335 9.94808 2.20488 9.27794 1.9896 8.66683C1.77433 8.05572 1.66669 7.43072 1.66669 6.79183C1.66669 5.48627 2.10419 4.396 2.97919 3.521C3.85419 2.646 4.94446 2.2085 6.25002 2.2085C6.97224 2.2085 7.65974 2.36127 8.31252 2.66683C8.9653 2.97239 9.5278 3.40294 10 3.9585C10.4722 3.40294 11.0347 2.97239 11.6875 2.66683C12.3403 2.36127 13.0278 2.2085 13.75 2.2085C15.0556 2.2085 16.1459 2.646 17.0209 3.521C17.8959 4.396 18.3334 5.48627 18.3334 6.79183C18.3334 7.43072 18.2257 8.05572 18.0104 8.66683C17.7952 9.27794 17.4167 9.94808 16.875 10.6772C16.3334 11.4064 15.6042 12.2293 14.6875 13.146C13.7709 14.0627 12.6111 15.1529 11.2084 16.4168L10 17.5002ZM10 15.2502C11.3334 14.0557 12.4306 13.0314 13.2917 12.1772C14.1528 11.3231 14.8334 10.58 15.3334 9.94808C15.8334 9.31614 16.1806 8.75364 16.375 8.26058C16.5695 7.76752 16.6667 7.27794 16.6667 6.79183C16.6667 5.9585 16.3889 5.26405 15.8334 4.7085C15.2778 4.15294 14.5834 3.87516 13.75 3.87516C13.0972 3.87516 12.4931 4.05919 11.9375 4.42725C11.382 4.7953 11 5.26405 10.7917 5.8335H9.20835C9.00002 5.26405 8.61808 4.7953 8.06252 4.42725C7.50696 4.05919 6.9028 3.87516 6.25002 3.87516C5.41669 3.87516 4.72224 4.15294 4.16669 4.7085C3.61113 5.26405 3.33335 5.9585 3.33335 6.79183C3.33335 7.27794 3.43058 7.76752 3.62502 8.26058C3.81946 8.75364 4.16669 9.31614 4.66669 9.94808C5.16669 10.58 5.84724 11.3231 6.70835 12.1772C7.56946 13.0314 8.66669 14.0557 10 15.2502Z" fill="#FF9B00"/>
</svg>
