<svg width="20" height="20" viewBox="0 0 20 20" fill="none" xmlns="http://www.w3.org/2000/svg">
<path d="M9.99999 17.5002L8.79166 16.4168C7.38888 15.1529 6.22916 14.0627 5.31249 13.146C4.39582 12.2293 3.66666 11.4064 3.12499 10.6772C2.58332 9.94808 2.20485 9.27794 1.98957 8.66683C1.7743 8.05572 1.66666 7.43072 1.66666 6.79183C1.66666 5.48627 2.10416 4.396 2.97916 3.521C3.85416 2.646 4.94443 2.2085 6.24999 2.2085C6.97221 2.2085 7.65971 2.36127 8.31249 2.66683C8.96527 2.97239 9.52777 3.40294 9.99999 3.9585C10.4722 3.40294 11.0347 2.97239 11.6875 2.66683C12.3403 2.36127 13.0278 2.2085 13.75 2.2085C15.0555 2.2085 16.1458 2.646 17.0208 3.521C17.8958 4.396 18.3333 5.48627 18.3333 6.79183C18.3333 7.43072 18.2257 8.05572 18.0104 8.66683C17.7951 9.27794 17.4167 9.94808 16.875 10.6772C16.3333 11.4064 15.6042 12.2293 14.6875 13.146C13.7708 14.0627 12.6111 15.1529 11.2083 16.4168L9.99999 17.5002ZM9.99999 15.2502C11.3333 14.0557 12.4305 13.0314 13.2917 12.1772C14.1528 11.3231 14.8333 10.58 15.3333 9.94808C15.8333 9.31614 16.1805 8.75364 16.375 8.26058C16.5694 7.76752 16.6667 7.27794 16.6667 6.79183C16.6667 5.9585 16.3889 5.26405 15.8333 4.7085C15.2778 4.15294 14.5833 3.87516 13.75 3.87516C13.0972 3.87516 12.493 4.05919 11.9375 4.42725C11.3819 4.7953 11 5.26405 10.7917 5.8335H9.20832C8.99999 5.26405 8.61804 4.7953 8.06249 4.42725C7.50693 4.05919 6.90277 3.87516 6.24999 3.87516C5.41666 3.87516 4.72221 4.15294 4.16666 4.7085C3.6111 5.26405 3.33332 5.9585 3.33332 6.79183C3.33332 7.27794 3.43055 7.76752 3.62499 8.26058C3.81943 8.75364 4.16666 9.31614 4.66666 9.94808C5.16666 10.58 5.84721 11.3231 6.70832 12.1772C7.56943 13.0314 8.66666 14.0557 9.99999 15.2502Z" fill="#FF9B00"/>
</svg>
