<svg width="12" height="12" viewBox="0 0 12 12" fill="none" xmlns="http://www.w3.org/2000/svg">
<path d="M5.99749 10.5C5.85821 10.5007 5.7187 10.4437 5.6185 10.329L2.12349 6.32899C1.94179 6.12104 1.96307 5.80517 2.17102 5.62348C2.37897 5.44179 2.69483 5.46307 2.87653 5.67101L5.50001 8.67355V2C5.50001 1.72386 5.72386 1.5 6.00001 1.5C6.27615 1.5 6.50001 1.72386 6.50001 2V8.66501L9.12395 5.67048C9.30594 5.46279 9.62183 5.44196 9.82952 5.62394C10.0372 5.80593 10.0581 6.12183 9.87606 6.32952L6.41379 10.2808C6.32383 10.4131 6.17207 10.5 6.00001 10.5L5.99749 10.5Z" fill="#FC5A5A"/>
</svg>
