<svg width="16" height="16" viewBox="0 0 16 16" fill="none" xmlns="http://www.w3.org/2000/svg">
<rect x="0.5" y="0.5" width="15" height="15" stroke="#FF9B00"/>
<path fill-rule="evenodd" clip-rule="evenodd" d="M13.1517 3.76838C14.0984 4.91949 14.6668 6.39348 14.6668 8.00024C14.6668 11.6821 11.6821 14.6669 8.00016 14.6669C4.31826 14.6669 1.3335 11.6821 1.3335 8.00024C1.3335 4.31834 4.31826 1.33357 8.00016 1.33357C9.5951 1.33357 11.0592 1.89366 12.2066 2.82788L12.5738 2.46066L12.7483 1.53108C12.8162 1.16921 13.1647 0.930935 13.5265 0.998871C13.8884 1.06681 14.1267 1.41523 14.0588 1.7771L14.0207 1.97972L14.2233 1.94168C14.5852 1.87374 14.9336 2.11202 15.0016 2.47389C15.0695 2.83576 14.8312 3.18418 14.4693 3.25212L13.4827 3.43735L13.1517 3.76838ZM11.2576 3.7769C10.3566 3.08095 9.22672 2.6669 8.00016 2.6669C5.05464 2.6669 2.66683 5.05472 2.66683 8.00024C2.66683 10.9458 5.05464 13.3336 8.00016 13.3336C10.9457 13.3336 13.3335 10.9458 13.3335 8.00024C13.3335 6.76184 12.9114 5.62203 12.2033 4.71681L11.251 5.66906C11.7225 6.32541 12.0002 7.1304 12.0002 8.00024C12.0002 10.2094 10.2093 12.0002 8.00016 12.0002C5.79102 12.0002 4.00016 10.2094 4.00016 8.00024C4.00016 5.7911 5.79102 4.00024 8.00016 4.00024C8.8581 4.00024 9.65295 4.27034 10.3043 4.73014L11.2576 3.7769ZM9.34023 5.69423C8.94648 5.46492 8.48866 5.33357 8.00016 5.33357C6.5274 5.33357 5.3335 6.52748 5.3335 8.00024C5.3335 9.473 6.5274 10.6669 8.00016 10.6669C9.47292 10.6669 10.6668 9.473 10.6668 8.00024C10.6668 7.49967 10.5289 7.03131 10.289 6.63109L9.28334 7.63673C9.31601 7.75229 9.3335 7.87422 9.3335 8.00024C9.3335 8.73662 8.73654 9.33357 8.00016 9.33357C7.26378 9.33357 6.66683 8.73662 6.66683 8.00024C6.66683 7.26386 7.26378 6.6669 8.00016 6.6669C8.11298 6.6669 8.22253 6.68092 8.32716 6.7073L9.34023 5.69423Z" fill="#FF9B00"/>
</svg>
