<svg width="16" height="16" viewBox="0 0 16 16" fill="none" xmlns="http://www.w3.org/2000/svg">
<path fill-rule="evenodd" clip-rule="evenodd" d="M13.9998 5.33333H1.99984V7.33333C1.99984 7.70152 2.29831 8 2.6665 8H13.3332C13.7014 8 13.9998 7.70152 13.9998 7.33333V5.33333ZM4.6665 4C4.6665 2.89543 5.56193 2 6.6665 2H9.33317C10.4377 2 11.3332 2.89543 11.3332 4H13.9998C14.7362 4 15.3332 4.59695 15.3332 5.33333V12C15.3332 13.4728 14.1393 14.6667 12.6665 14.6667H3.33317C1.86041 14.6667 0.666504 13.4728 0.666504 12V5.33333C0.666504 4.59695 1.26346 4 1.99984 4H4.6665ZM5.99984 4H9.99984C9.99984 3.63181 9.70136 3.33333 9.33317 3.33333H6.6665C6.29831 3.33333 5.99984 3.63181 5.99984 4ZM5.99984 9.33333H2.6665C2.43275 9.33333 2.20836 9.29323 1.99984 9.21953V12C1.99984 12.7364 2.59679 13.3333 3.33317 13.3333H12.6665C13.4029 13.3333 13.9998 12.7364 13.9998 12V9.21953C13.7913 9.29323 13.5669 9.33333 13.3332 9.33333H9.99984V10.4C9.99984 10.9155 9.58197 11.3333 9.0665 11.3333H6.93317C6.41771 11.3333 5.99984 10.9155 5.99984 10.4V9.33333ZM7.33317 10H8.6665V9.33333H7.33317V10Z" fill="#383A39"/>
</svg>
