<svg width="24" height="24" viewBox="0 0 24 24" fill="none" xmlns="http://www.w3.org/2000/svg">
<circle cx="12" cy="12" r="12" fill="#F7F2ED"/>
<path d="M12 20.5002L10.7917 19.4168C9.38891 18.1529 8.22919 17.0627 7.31252 16.146C6.39585 15.2293 5.66669 14.4064 5.12502 13.6772C4.58335 12.9481 4.20488 12.2779 3.9896 11.6668C3.77433 11.0557 3.66669 10.4307 3.66669 9.79183C3.66669 8.48627 4.10419 7.396 4.97919 6.521C5.85419 5.646 6.94446 5.2085 8.25002 5.2085C8.97224 5.2085 9.65974 5.36127 10.3125 5.66683C10.9653 5.97239 11.5278 6.40294 12 6.9585C12.4722 6.40294 13.0347 5.97239 13.6875 5.66683C14.3403 5.36127 15.0278 5.2085 15.75 5.2085C17.0556 5.2085 18.1459 5.646 19.0209 6.521C19.8959 7.396 20.3334 8.48627 20.3334 9.79183C20.3334 10.4307 20.2257 11.0557 20.0104 11.6668C19.7952 12.2779 19.4167 12.9481 18.875 13.6772C18.3334 14.4064 17.6042 15.2293 16.6875 16.146C15.7709 17.0627 14.6111 18.1529 13.2084 19.4168L12 20.5002ZM12 18.2502C13.3334 17.0557 14.4306 16.0314 15.2917 15.1772C16.1528 14.3231 16.8334 13.58 17.3334 12.9481C17.8334 12.3161 18.1806 11.7536 18.375 11.2606C18.5695 10.7675 18.6667 10.2779 18.6667 9.79183C18.6667 8.9585 18.3889 8.26405 17.8334 7.7085C17.2778 7.15294 16.5834 6.87516 15.75 6.87516C15.0972 6.87516 14.4931 7.05919 13.9375 7.42725C13.382 7.7953 13 8.26405 12.7917 8.8335H11.2084C11 8.26405 10.6181 7.7953 10.0625 7.42725C9.50696 7.05919 8.9028 6.87516 8.25002 6.87516C7.41669 6.87516 6.72224 7.15294 6.16669 7.7085C5.61113 8.26405 5.33335 8.9585 5.33335 9.79183C5.33335 10.2779 5.43058 10.7675 5.62502 11.2606C5.81946 11.7536 6.16669 12.3161 6.66669 12.9481C7.16669 13.58 7.84724 14.3231 8.70835 15.1772C9.56946 16.0314 10.6667 17.0557 12 18.2502Z" fill="#FF9B00"/>
</svg>
