<svg width="100" height="20" viewBox="0 0 100 20" fill="none" xmlns="http://www.w3.org/2000/svg">
<path d="M1.50049 14.4742C1.50049 14.4742 5.32415 13.6283 9.67143 15.6604C17.9397 19.5252 18.4114 12.4477 21.4773 9.03512C24.2824 5.91294 26.6054 7.8179 29.7286 11.6361C32.0321 14.4521 35.3891 19.1792 38.8657 18.4182C42.0436 17.7226 44.2965 12.1784 48.7015 10.7684C52.1927 9.65089 55.0299 12.721 59.0501 11.6361C64.5037 10.1643 65.3161 4.52671 69.2138 4.52671C74.0245 4.52671 77.0374 14.5866 81.4138 14.5866C85.7642 14.5866 88.0025 4.64174 92.7615 7.66069C96.3997 9.9687 98.5005 1.5 98.5005 1.5" stroke="#FC5A5A" stroke-width="3" stroke-linecap="round" stroke-linejoin="round"/>
</svg>
