<svg width="24" height="24" viewBox="0 0 24 24" fill="none" xmlns="http://www.w3.org/2000/svg">
<path d="M13.5 16.5C13.5 16.8978 13.342 17.2794 13.0607 17.5607C12.7794 17.842 12.3978 18 12 18C11.6022 18 11.2206 17.842 10.9393 17.5607C10.658 17.2794 10.5 16.8978 10.5 16.5C10.5 16.1022 10.658 15.7206 10.9393 15.4393C11.2206 15.158 11.6022 15 12 15C12.3978 15 12.7794 15.158 13.0607 15.4393C13.342 15.7206 13.5 16.1022 13.5 16.5ZM11.25 6C10.2554 6 9.30161 6.39509 8.59835 7.09835C7.89509 7.80161 7.5 8.75544 7.5 9.75H10.5C10.5 9.55109 10.579 9.36032 10.7197 9.21967C10.8603 9.07902 11.0511 9 11.25 9H12.219C12.3482 9.00006 12.4735 9.04375 12.5747 9.12398C12.6759 9.20422 12.747 9.31629 12.7766 9.44202C12.8061 9.56775 12.7923 9.69977 12.7373 9.81666C12.6824 9.93355 12.5896 10.0285 12.474 10.086L10.5 11.073V13.5H13.5V12.927L13.8165 12.768C14.536 12.4078 15.1128 11.8154 15.4536 11.0866C15.7944 10.3578 15.8793 9.53524 15.6945 8.75219C15.5096 7.96914 15.0659 7.27139 14.4352 6.77191C13.8044 6.27242 13.0236 6.00044 12.219 6H11.25Z" fill="#363636"/>
<path d="M0 12C0 8.8174 1.26428 5.76516 3.51472 3.51472C5.76516 1.26428 8.8174 0 12 0C15.1826 0 18.2348 1.26428 20.4853 3.51472C22.7357 5.76516 24 8.8174 24 12C24 15.1826 22.7357 18.2348 20.4853 20.4853C18.2348 22.7357 15.1826 24 12 24C8.8174 24 5.76516 22.7357 3.51472 20.4853C1.26428 18.2348 0 15.1826 0 12ZM12 3C10.8181 3 9.64778 3.23279 8.55585 3.68508C7.46392 4.13738 6.47177 4.80031 5.63604 5.63604C4.80031 6.47177 4.13738 7.46392 3.68508 8.55585C3.23279 9.64778 3 10.8181 3 12C3 13.1819 3.23279 14.3522 3.68508 15.4442C4.13738 16.5361 4.80031 17.5282 5.63604 18.364C6.47177 19.1997 7.46392 19.8626 8.55585 20.3149C9.64778 20.7672 10.8181 21 12 21C14.3869 21 16.6761 20.0518 18.364 18.364C20.0518 16.6761 21 14.3869 21 12C21 9.61305 20.0518 7.32387 18.364 5.63604C16.6761 3.94821 14.3869 3 12 3Z" fill="#363636"/>
</svg>
