<svg width="88" height="62" viewBox="0 0 88 62" fill="none" xmlns="http://www.w3.org/2000/svg">
<g filter="url(#filter0_d_899_5969)">
<path fill-rule="evenodd" clip-rule="evenodd" d="M48.6482 60.1492C46.4051 62.6169 42.7682 62.6169 40.5251 60.1492L36.5294 56.3682C35.6009 55.4896 34.3711 55 33.0928 55H22.5622C14.7168 55 11.8719 54.3038 9.00376 52.9965C6.13561 51.6892 3.88467 49.7708 2.35077 47.3263C0.816865 44.8819 0 42.4573 0 35.7709V19.2291C0 12.5427 0.816865 10.1181 2.35077 7.67366C3.88467 5.22921 6.13561 3.3108 9.00376 2.0035C11.8719 0.696192 14.7168 0 22.5622 0H65.4378C73.2832 0 76.1281 0.696192 78.9962 2.0035C81.8644 3.3108 84.1153 5.22921 85.6492 7.67366C87.1831 10.1181 88 12.5427 88 19.2291V35.7709C88 42.4573 87.1831 44.8819 85.6492 47.3263C84.1153 49.7708 81.8644 51.6892 78.9962 52.9965C76.1281 54.3038 73.2832 55 65.4378 55H58.0712C55.5146 55 53.055 55.9792 51.198 57.7364L48.6482 60.1492Z" fill="white"/>
</g>
<defs>
<filter id="filter0_d_899_5969" x="-15" y="-10" width="118" height="92" filterUnits="userSpaceOnUse" color-interpolation-filters="sRGB">
<feFlood flood-opacity="0" result="BackgroundImageFix"/>
<feColorMatrix in="SourceAlpha" type="matrix" values="0 0 0 0 0 0 0 0 0 0 0 0 0 0 0 0 0 0 127 0" result="hardAlpha"/>
<feOffset dy="5"/>
<feGaussianBlur stdDeviation="7.5"/>
<feColorMatrix type="matrix" values="0 0 0 0 0.268354 0 0 0 0 0.268354 0 0 0 0 0.31049 0 0 0 0.1 0"/>
<feBlend mode="normal" in2="BackgroundImageFix" result="effect1_dropShadow_899_5969"/>
<feBlend mode="normal" in="SourceGraphic" in2="effect1_dropShadow_899_5969" result="shape"/>
</filter>
</defs>
</svg>
