<svg width="40" height="40" viewBox="0 0 40 40" fill="none" xmlns="http://www.w3.org/2000/svg">
<path d="M10 13.334H16.6667" stroke="white" stroke-width="1.5" stroke-linecap="round" stroke-linejoin="round"/>
<path d="M34.7217 15H30.385C27.41 15 25 17.2383 25 20C25 22.7617 27.4117 25 30.3833 25H34.7217C34.8617 25 34.93 25 34.9883 24.9967C35.8883 24.9417 36.605 24.2767 36.6633 23.4417C36.6667 23.3883 36.6667 23.3233 36.6667 23.195V16.805C36.6667 16.6767 36.6667 16.6117 36.6633 16.5583C36.6033 15.7233 35.8883 15.0583 34.9883 15.0033C34.9317 15 34.8617 15 34.7217 15Z" stroke="white" stroke-width="1.5"/>
<path d="M34.9417 15.0003C34.8117 11.8803 34.395 9.96699 33.0467 8.62033C31.095 6.66699 27.9517 6.66699 21.6667 6.66699H16.6667C10.3817 6.66699 7.23837 6.66699 5.28671 8.62033C3.33504 10.5737 3.33337 13.7153 3.33337 20.0003C3.33337 26.2853 3.33337 29.4287 5.28671 31.3803C7.24004 33.332 10.3817 33.3337 16.6667 33.3337H21.6667C27.9517 33.3337 31.095 33.3337 33.0467 31.3803C34.395 30.0337 34.8134 28.1203 34.9417 25.0003" stroke="white" stroke-width="1.5"/>
<path d="M29.985 20H30.0017" stroke="white" stroke-width="2" stroke-linecap="round" stroke-linejoin="round"/>
</svg>
