<svg width="16" height="16" viewBox="0 0 16 16" fill="none" xmlns="http://www.w3.org/2000/svg">
<path d="M5.16572 10.8576L10.88 5.14328M0.57143 12.5718C0.57143 12.8746 0.691524 13.1649 0.905357 13.3792C1.11919 13.5934 1.40929 13.7141 1.712 13.7147H14.288C14.5907 13.7141 14.8808 13.5934 15.0946 13.3792C15.3085 13.1649 15.4286 12.8746 15.4286 12.5718V10.2473C14.9351 10.1135 14.4994 9.82093 14.1888 9.41484C13.8782 9.00875 13.7098 8.5117 13.7098 8.00042C13.7098 7.48914 13.8782 6.99208 14.1888 6.58599C14.4994 6.17991 14.9351 5.88737 15.4286 5.75356V3.42899C15.4286 3.12628 15.3085 2.83594 15.0946 2.62167C14.8808 2.40741 14.5907 2.28674 14.288 2.28613H1.712C1.40929 2.28674 1.11919 2.40741 0.905357 2.62167C0.691524 2.83594 0.57143 3.12628 0.57143 3.42899V5.74899C1.06882 5.87981 1.50889 6.17166 1.82293 6.57897C2.13696 6.98628 2.30727 7.48611 2.30727 8.00042C2.30727 8.51473 2.13696 9.01456 1.82293 9.42187C1.50889 9.82917 1.06882 10.121 0.57143 10.2518V12.5718Z" stroke="black" stroke-linecap="round" stroke-linejoin="round"/>
<path d="M5.73714 6.28641C5.8887 6.28641 6.03404 6.22621 6.1412 6.11904C6.24837 6.01188 6.30857 5.86654 6.30857 5.71498C6.30857 5.56343 6.24837 5.41809 6.1412 5.31092C6.03404 5.20376 5.8887 5.14355 5.73714 5.14355C5.58559 5.14355 5.44025 5.20376 5.33308 5.31092C5.22592 5.41809 5.16571 5.56343 5.16571 5.71498C5.16571 5.86654 5.22592 6.01188 5.33308 6.11904C5.44025 6.22621 5.58559 6.28641 5.73714 6.28641ZM10.3086 10.8578C10.4601 10.8578 10.6055 10.7976 10.7126 10.6905C10.8198 10.5833 10.88 10.438 10.88 10.2864C10.88 10.1349 10.8198 9.98951 10.7126 9.88235C10.6055 9.77519 10.4601 9.71498 10.3086 9.71498C10.157 9.71498 10.0117 9.77519 9.90451 9.88235C9.79735 9.98951 9.73714 10.1349 9.73714 10.2864C9.73714 10.438 9.79735 10.5833 9.90451 10.6905C10.0117 10.7976 10.157 10.8578 10.3086 10.8578Z" stroke="black" stroke-linecap="round" stroke-linejoin="round"/>
</svg>
