<svg width="45" height="45" viewBox="0 0 45 45" fill="none" xmlns="http://www.w3.org/2000/svg">
<path d="M40.5 40.5C40.5 42.9975 38.4975 45 36 45C34.8065 45 33.6619 44.5259 32.818 43.682C31.9741 42.8381 31.5 41.6935 31.5 40.5C31.5 38.0025 33.5025 36 36 36C37.1935 36 38.3381 36.4741 39.182 37.318C40.0259 38.1619 40.5 39.3065 40.5 40.5ZM13.5 36C11.0025 36 9 38.0025 9 40.5C9 41.6935 9.47411 42.8381 10.318 43.682C11.1619 44.5259 12.3065 45 13.5 45C15.9975 45 18 42.9975 18 40.5C18 38.0025 15.9975 36 13.5 36ZM13.95 28.4175L13.8825 28.6875C13.8825 29.0025 14.13 29.25 14.445 29.25H40.5V33.75H13.5C12.3065 33.75 11.1619 33.2759 10.318 32.432C9.47411 31.5881 9 30.4435 9 29.25C9 28.4625 9.2025 27.72 9.54 27.09L12.6 21.5775L4.5 4.5H0V0H7.3575L9.4725 4.5H42.75C43.9875 4.5 45 5.5125 45 6.75C45 7.1325 44.8875 7.515 44.73 7.875L36.675 22.4325C35.91 23.805 34.425 24.75 32.7375 24.75H15.975L13.95 28.4175ZM16.875 20.25H20.25V15.75H14.76L16.875 20.25ZM22.5 15.75V20.25H29.25V15.75H22.5ZM29.25 13.5V9H22.5V13.5H29.25ZM36.2475 15.75H31.5V20.25H33.75L36.2475 15.75ZM40.005 9H31.5V13.5H37.5075L40.005 9ZM11.565 9L13.68 13.5H20.25V9H11.565Z" fill="#FF9B00"/>
</svg>
