<svg width="12" height="13" viewBox="0 0 12 13" fill="none" xmlns="http://www.w3.org/2000/svg">
<path d="M4.76465 1.20264C4.97533 0.265961 6.30983 0.265963 6.52051 1.20264L6.68359 1.92822C6.87861 2.79526 7.64939 3.41162 8.53809 3.41162H9.85352C10.6469 3.41162 11.052 4.36421 10.502 4.93604L8.6543 6.85693C8.21194 7.31692 8.02988 7.96869 8.16992 8.59131L8.66602 10.7964C8.86652 11.6878 7.76502 12.2762 7.13574 11.6138L7.02051 11.4927C6.27139 10.7039 5.01377 10.7039 4.26465 11.4927L4.13574 11.6284C3.50716 12.2903 2.40602 11.704 2.60449 10.813L3.09375 8.61865C3.23129 8.00122 3.05181 7.35565 2.61621 6.89697L0.75 4.93115C0.205936 4.3578 0.61279 3.41162 1.40332 3.41162H2.74707C3.63577 3.41162 4.40655 2.79526 4.60156 1.92822L4.76465 1.20264Z" stroke="#FF9B00"/>
</svg>
