<svg width="18" height="20" viewBox="0 0 18 20" fill="none" xmlns="http://www.w3.org/2000/svg">
<path d="M9.09 16.5665L9 16.673L8.901 16.5665C4.626 11.9748 1.8 8.93846 1.8 5.85954C1.8 3.7288 3.15 2.13074 4.95 2.13074C6.336 2.13074 7.686 3.19611 8.163 4.64502H9.837C10.314 3.19611 11.664 2.13074 13.05 2.13074C14.85 2.13074 16.2 3.7288 16.2 5.85954C16.2 8.93846 13.374 11.9748 9.09 16.5665ZM13.05 0C11.484 0 9.981 0.86295 9 2.21597C8.019 0.86295 6.516 0 4.95 0C2.178 0 0 2.56754 0 5.85954C0 9.87599 3.06 13.168 7.695 18.1433L9 19.5496L10.305 18.1433C14.94 13.168 18 9.87599 18 5.85954C18 2.56754 15.822 0 13.05 0Z" fill="black"/>
</svg>
