<svg width="25" height="23" viewBox="0 0 25 23" fill="none" xmlns="http://www.w3.org/2000/svg">
<path d="M12.5 0C5.625 0 0 4.475 0 10C0.0315581 11.3283 0.356032 12.6333 0.950249 13.8218C1.54447 15.0102 2.39377 16.0528 3.4375 16.875C3.4375 17.625 2.9125 19.5875 0 22.5C2.9625 22.3625 5.8 21.25 8.0875 19.375C9.5125 19.7875 11.0125 20 12.5 20C19.375 20 25 15.525 25 10C25 4.475 19.375 0 12.5 0ZM12.5 17.5C6.975 17.5 2.5 14.1375 2.5 10C2.5 5.8625 6.975 2.5 12.5 2.5C18.025 2.5 22.5 5.8625 22.5 10C22.5 14.1375 18.025 17.5 12.5 17.5Z" fill="#FF9B00"/>
</svg>
