<svg width="17" height="15" viewBox="0 0 17 15" fill="none" xmlns="http://www.w3.org/2000/svg">
<path d="M14.1667 3.33333H13.3333V2.5C13.3333 1.83696 13.0699 1.20107 12.6011 0.732233C12.1323 0.263392 11.4964 0 10.8333 0H2.5C1.83696 0 1.20107 0.263392 0.732233 0.732233C0.263392 1.20107 0 1.83696 0 2.5V12.5C0 13.163 0.263392 13.7989 0.732233 14.2678C1.20107 14.7366 1.83696 15 2.5 15H14.1667C14.8297 15 15.4656 14.7366 15.9344 14.2678C16.4033 13.7989 16.6667 13.163 16.6667 12.5V5.83333C16.6667 5.17029 16.4033 4.53441 15.9344 4.06557C15.4656 3.59673 14.8297 3.33333 14.1667 3.33333ZM2.5 1.66667H10.8333C11.0543 1.66667 11.2663 1.75446 11.4226 1.91074C11.5789 2.06702 11.6667 2.27899 11.6667 2.5V3.33333H2.5C2.27899 3.33333 2.06702 3.24554 1.91074 3.08926C1.75446 2.93298 1.66667 2.72101 1.66667 2.5C1.66667 2.27899 1.75446 2.06702 1.91074 1.91074C2.06702 1.75446 2.27899 1.66667 2.5 1.66667ZM15 10H14.1667C13.9457 10 13.7337 9.9122 13.5774 9.75592C13.4211 9.59964 13.3333 9.38768 13.3333 9.16667C13.3333 8.94565 13.4211 8.73369 13.5774 8.57741C13.7337 8.42113 13.9457 8.33333 14.1667 8.33333H15V10ZM15 6.66667H14.1667C13.5036 6.66667 12.8677 6.93006 12.3989 7.3989C11.9301 7.86774 11.6667 8.50362 11.6667 9.16667C11.6667 9.82971 11.9301 10.4656 12.3989 10.9344C12.8677 11.4033 13.5036 11.6667 14.1667 11.6667H15V12.5C15 12.721 14.9122 12.933 14.7559 13.0893C14.5996 13.2455 14.3877 13.3333 14.1667 13.3333H2.5C2.27899 13.3333 2.06702 13.2455 1.91074 13.0893C1.75446 12.933 1.66667 12.721 1.66667 12.5V4.85833C1.93439 4.95251 2.21619 5.00042 2.5 5H14.1667C14.3877 5 14.5996 5.0878 14.7559 5.24408C14.9122 5.40036 15 5.61232 15 5.83333V6.66667Z" fill="black"/>
</svg>
