<svg width="16" height="10" viewBox="0 0 16 10" fill="none" xmlns="http://www.w3.org/2000/svg">
<path d="M7.9375 0.25C8.25102 0.250096 8.55201 0.372805 8.77637 0.591797L15.249 6.91309C15.4708 7.13646 15.5958 7.43811 15.5977 7.75293C15.5994 8.06896 15.4767 8.37352 15.2559 8.59961C15.035 8.82567 14.7339 8.95519 14.418 8.96094C14.1028 8.96666 13.798 8.84867 13.5693 8.63184H13.5703L8.11133 3.30176L7.9375 3.13184L7.7627 3.30176L2.30469 8.63184L2.30176 8.63477C2.18951 8.74716 2.05605 8.83598 1.90918 8.89648C1.76212 8.95702 1.60433 8.98814 1.44531 8.9873C1.28624 8.98645 1.12886 8.95373 0.982422 8.8916C0.835972 8.82946 0.702957 8.73881 0.591797 8.625C0.480761 8.51124 0.393588 8.37628 0.334961 8.22852C0.276352 8.08071 0.247111 7.92265 0.25 7.76367C0.252916 7.60482 0.287691 7.44821 0.351562 7.30273C0.41557 7.15709 0.507826 7.02474 0.623047 6.91504L0.625 6.91309L7.09766 0.591797C7.32212 0.372643 7.62379 0.25 7.9375 0.25Z" fill="white" stroke="white" stroke-width="0.5"/>
</svg>
