<svg width="80" height="80" viewBox="0 0 80 80" fill="none" xmlns="http://www.w3.org/2000/svg">
<path d="M72 72C72 76.44 68.44 80 64 80C61.8783 80 59.8434 79.1571 58.3431 77.6569C56.8429 76.1566 56 74.1217 56 72C56 67.56 59.56 64 64 64C66.1217 64 68.1566 64.8429 69.6569 66.3431C71.1571 67.8434 72 69.8783 72 72ZM24 64C19.56 64 16 67.56 16 72C16 74.1217 16.8429 76.1566 18.3431 77.6569C19.8434 79.1571 21.8783 80 24 80C28.44 80 32 76.44 32 72C32 67.56 28.44 64 24 64ZM24.8 50.52L24.68 51C24.68 51.56 25.12 52 25.68 52H72V60H24C21.8783 60 19.8434 59.1571 18.3431 57.6569C16.8429 56.1566 16 54.1217 16 52C16 50.6 16.36 49.28 16.96 48.16L22.4 38.36L8 8H0V0H13.08L16.84 8H76C78.2 8 80 9.8 80 12C80 12.68 79.8 13.36 79.52 14L65.2 39.88C63.84 42.32 61.2 44 58.2 44H28.4L24.8 50.52ZM30 36H36V28H26.24L30 36ZM40 28V36H52V28H40ZM52 24V16H40V24H52ZM64.44 28H56V36H60L64.44 28ZM71.12 16H56V24H66.68L71.12 16ZM20.56 16L24.32 24H36V16H20.56Z" fill="#FF9B00"/>
</svg>
