<svg width="12" height="13" viewBox="0 0 12 13" fill="none" xmlns="http://www.w3.org/2000/svg">
<path d="M10.8626 5.28222C11.7181 4.39271 11.0877 2.91171 9.85354 2.91171H8.53766C7.88283 2.91171 7.31548 2.4578 7.17179 1.81893L7.00845 1.09274C6.68073 -0.364309 4.60442 -0.364308 4.2767 1.09274L4.11337 1.81893C3.96967 2.4578 3.40232 2.91171 2.74749 2.91171H1.40284C0.172918 2.91171 -0.459279 4.38395 0.387675 5.27579L2.25411 7.24114C2.57508 7.57911 2.7068 8.05466 2.60546 8.50961L2.11656 10.7044C1.80783 12.0903 3.52044 13.0025 4.49823 11.9728L4.62741 11.8368C5.17939 11.2556 6.10576 11.2556 6.65774 11.8368L6.77292 11.9581C7.75176 12.9888 9.46589 12.0736 9.15397 10.6868L8.65786 8.48112C8.55467 8.02231 8.68872 7.54234 9.01472 7.2034L10.8626 5.28222Z" fill="#FFAD33"/>
</svg>
