<svg width="5" height="5" viewBox="0 0 5 5" fill="none" xmlns="http://www.w3.org/2000/svg">
<path d="M3.75046 2.85785e-08C3.86913 2.85785e-08 3.98613 0.00533316 4.10146 0.0159998C4.29846 0.0349998 4.36946 0.27 4.23046 0.41L3.01746 1.622C2.69461 1.73393 2.40134 1.91762 2.15971 2.15925C1.91809 2.40087 1.7344 2.69414 1.62246 3.017L0.410463 4.23C0.270463 4.37 0.0354633 4.298 0.0164633 4.101C-0.0324044 3.5812 0.0278066 3.05693 0.193241 2.56174C0.358676 2.06655 0.625688 1.61137 0.977184 1.22532C1.32868 0.839281 1.75691 0.530888 2.23447 0.319889C2.71202 0.10889 3.22837 -6.44238e-05 3.75046 2.85785e-08Z" fill="black"/>
</svg>
