<svg width="8" height="12" viewBox="0 0 8 12" fill="none" xmlns="http://www.w3.org/2000/svg">
<path d="M5.15 12L0.666667 7.33333V6H3C3.58889 6 4.09722 5.80833 4.525 5.425C4.95278 5.04167 5.21111 4.56667 5.3 4H0V2.66667H5.1C4.91111 2.27778 4.63056 1.95833 4.25833 1.70833C3.88611 1.45833 3.46667 1.33333 3 1.33333H0V0H8V1.33333H5.83333C5.98889 1.52222 6.12778 1.72778 6.25 1.95C6.37222 2.17222 6.46667 2.41111 6.53333 2.66667H8V4H6.65C6.56111 4.94444 6.17222 5.73611 5.48333 6.375C4.79445 7.01389 3.96667 7.33333 3 7.33333H2.51667L7 12H5.15Z" fill="#363636"/>
</svg>
