<svg width="13" height="13" viewBox="0 0 13 13" fill="none" xmlns="http://www.w3.org/2000/svg">
<path d="M6.25 9.375C6.42708 9.375 6.57563 9.315 6.69563 9.195C6.81563 9.075 6.87542 8.92667 6.875 8.75V6.25C6.875 6.07292 6.815 5.92458 6.695 5.805C6.575 5.68542 6.42667 5.62542 6.25 5.625C6.07333 5.62458 5.925 5.68458 5.805 5.805C5.685 5.92542 5.625 6.07375 5.625 6.25V8.75C5.625 8.92708 5.685 9.07562 5.805 9.19562C5.925 9.31562 6.07333 9.37542 6.25 9.375ZM6.25 4.375C6.42708 4.375 6.57563 4.315 6.69563 4.195C6.81563 4.075 6.87542 3.92667 6.875 3.75C6.87458 3.57333 6.81458 3.425 6.695 3.305C6.57542 3.185 6.42708 3.125 6.25 3.125C6.07292 3.125 5.92458 3.185 5.805 3.305C5.68542 3.425 5.62542 3.57333 5.625 3.75C5.62458 3.92667 5.68458 4.07521 5.805 4.19563C5.92542 4.31604 6.07375 4.37583 6.25 4.375ZM6.25 12.5C5.38542 12.5 4.57292 12.3358 3.8125 12.0075C3.05208 11.6792 2.39063 11.234 1.82813 10.6719C1.26563 10.1098 0.820418 9.44833 0.492501 8.6875C0.164584 7.92667 0.000417458 7.11417 7.91139e-07 6.25C-0.000415876 5.38583 0.163751 4.57333 0.492501 3.8125C0.821251 3.05167 1.26646 2.39021 1.82813 1.82813C2.38979 1.26604 3.05125 0.820833 3.8125 0.4925C4.57375 0.164167 5.38625 0 6.25 0C7.11375 0 7.92625 0.164167 8.6875 0.4925C9.44875 0.820833 10.1102 1.26604 10.6719 1.82813C11.2335 2.39021 11.679 3.05167 12.0081 3.8125C12.3373 4.57333 12.5013 5.38583 12.5 6.25C12.4988 7.11417 12.3346 7.92667 12.0075 8.6875C11.6804 9.44833 11.2352 10.1098 10.6719 10.6719C10.1085 11.234 9.44708 11.6794 8.6875 12.0081C7.92792 12.3369 7.11542 12.5008 6.25 12.5ZM6.25 11.25C7.64583 11.25 8.82812 10.7656 9.79688 9.79688C10.7656 8.82812 11.25 7.64583 11.25 6.25C11.25 4.85417 10.7656 3.67187 9.79688 2.70312C8.82812 1.73437 7.64583 1.25 6.25 1.25C4.85417 1.25 3.67188 1.73437 2.70313 2.70312C1.73438 3.67187 1.25 4.85417 1.25 6.25C1.25 7.64583 1.73438 8.82812 2.70313 9.79688C3.67188 10.7656 4.85417 11.25 6.25 11.25Z" fill="#BDBDBD"/>
</svg>
